<svg aria-hidden="true" style="position: absolute; width: 0; height: 0; overflow: hidden;" version="1.1" xmlns="http://www.w3.org/2000/svg" xmlns:xlink="http://www.w3.org/1999/xlink">
<defs>
<symbol id="icon-search" viewBox="0 0 32 32">
<path d="M19.427 20.427c-1.39 0.99-3.090 1.573-4.927 1.573-4.694 0-8.5-3.806-8.5-8.5s3.806-8.5 8.5-8.5c4.694 0 8.5 3.806 8.5 8.5 0 1.837-0.583 3.537-1.573 4.927l5.585 5.585c0.55 0.55 0.546 1.431-0 1.976l-0.023 0.023c-0.544 0.544-1.431 0.546-1.976 0l-5.585-5.585zM14.5 20c3.59 0 6.5-2.91 6.5-6.5s-2.91-6.5-6.5-6.5c-3.59 0-6.5 2.91-6.5 6.5s2.91 6.5 6.5 6.5v0z"></path>
</symbol>
<symbol id="icon-shopping-cart" viewBox="0 0 24 24">
<path d="M20.756 5.345c-0.191-0.219-0.466-0.345-0.756-0.345h-13.819l-0.195-1.164c-0.080-0.482-0.497-0.836-0.986-0.836h-2.25c-0.553 0-1 0.447-1 1s0.447 1 1 1h1.403l1.86 11.164c0.008 0.045 0.031 0.082 0.045 0.124 0.016 0.053 0.029 0.103 0.054 0.151 0.032 0.066 0.075 0.122 0.12 0.179 0.031 0.039 0.059 0.078 0.095 0.112 0.058 0.054 0.125 0.092 0.193 0.13 0.038 0.021 0.071 0.049 0.112 0.065 0.116 0.047 0.238 0.075 0.367 0.075 0.001 0 11.001 0 11.001 0 0.553 0 1-0.447 1-1s-0.447-1-1-1h-10.153l-0.166-1h11.319c0.498 0 0.92-0.366 0.99-0.858l1-7c0.041-0.288-0.045-0.579-0.234-0.797zM18.847 7l-0.285 2h-3.562v-2h3.847zM14 7v2h-3v-2h3zM14 10v2h-3v-2h3zM10 7v2h-3c-0.053 0-0.101 0.015-0.148 0.030l-0.338-2.030h3.486zM7.014 10h2.986v2h-2.653l-0.333-2zM15 12v-2h3.418l-0.285 2h-3.133z"></path>
<path d="M10 19.5c0 0.828-0.672 1.5-1.5 1.5s-1.5-0.672-1.5-1.5c0-0.828 0.672-1.5 1.5-1.5s1.5 0.672 1.5 1.5z"></path>
<path d="M19 19.5c0 0.828-0.672 1.5-1.5 1.5s-1.5-0.672-1.5-1.5c0-0.828 0.672-1.5 1.5-1.5s1.5 0.672 1.5 1.5z"></path>
</symbol>
<symbol id="icon-shopping-cart1" viewBox="0 0 20 20">
<path d="M13 17c0 1.104 0.894 2 2 2 1.104 0 2-0.896 2-2 0-1.106-0.896-2-2-2-1.106 0-2 0.894-2 2zM3 17c0 1.104 0.895 2 2 2 1.103 0 2-0.896 2-2 0-1.106-0.897-2-2-2-1.105 0-2 0.894-2 2zM6.547 12.172l11.068-3.162c0.211-0.061 0.385-0.289 0.385-0.51v-5.5h-14v-1.6c0-0.22-0.181-0.4-0.399-0.4h-3.202c-0.219 0-0.399 0.18-0.399 0.4v1.6h2l1.91 8.957 0.090 0.943v1.649c0 0.219 0.18 0.4 0.4 0.4h13.2c0.22 0 0.4-0.182 0.4-0.4v-1.549h-11.248c-1.15 0-1.174-0.551-0.205-0.828z"></path>
</symbol>
</defs>
</svg>
